/* XPM */
static char *result[] = {
/* columns rows colors chars-per-pixel */
"32 32 64 1 ",
"  c black",
". c #010202",
"X c #020202",
"o c #1D4E54",
"O c #1D4E55",
"+ c #25646C",
"@ c gray29",
"# c gray31",
"$ c #505050",
"% c gray39",
"& c DimGray",
"* c #6A6A6A",
"= c #797979",
"- c gray48",
"; c #45BACA",
": c #45BBCA",
"> c #4CCEDF",
", c #4DD0E1",
"< c #5FD5E4",
"1 c #60D5E4",
"2 c #61D5E4",
"3 c #75DBE8",
"4 c #7BDBE8",
"5 c #7BDDE9",
"6 c #7CDDE9",
"7 c #80DEEA",
"8 c #81DEEA",
"9 c #8FE1EC",
"0 c #90E2EC",
"q c #93E2EC",
"w c #94E2ED",
"e c #9EE2EB",
"r c #9BE4ED",
"t c #ACE6ED",
"y c #AEE8EF",
"u c #B1E9F0",
"i c #B2E9F0",
"p c #B3EAF0",
"a c #B4EAF1",
"s c #B8EBF1",
"d c #C6C6C6",
"f c gray83",
"g c #CBE9ED",
"h c #CCE9ED",
"j c #C5ECF1",
"k c #C6EEF3",
"l c #C7EEF3",
"z c #C8EEF3",
"x c #CFF3F7",
"c c #D0F1F5",
"v c #D1F1F5",
"b c #D4F0F4",
"n c #D6F3F6",
"m c #D7F5F8",
"M c #EEEEEE",
"N c #E2EEF0",
"B c #E5F8FB",
"V c #EEFAFB",
"C c #ECFAFC",
"Z c #F1F1F1",
"A c gray99",
"S c #FDFDFD",
"D c white",
"F c None",
/* pixels */
"FFFFFFFFFFF          FFFFFFFFFFF",
"FFFFFFFFFFF          FFFFFFFFFFF",
"FFFFFFF   #SSSbjjt>>>o   FFFFFFF",
"FFFFFFF   $DDDnlly,,,O   FFFFFFF",
"FFFF   fDDVlllllly,,,,,,;   FFFF",
"FFFF   fDDVlllllly,,,,,,;   FFFF",
"   &SSSZMMNlllw8877771,,<SSS=   ",
"   *DDDZMMNlllq7777771,,1DDD-   ",
"   %MMMADDDDDDDDDB777xDDC,,,+   ",
"   %MMMADDDDDDDDDB777xDDC,,,+   ",
"   *DDDvzzi8888880kkkr886,,,+   ",
"   *DDDcllu7777779lllr775,,,+   ",
"   *DDDcllu7777779lllr775,,,+   ",
"   *DDDcllu7777779lllr775,,,+   ",
"   *DDDZMMg777pkks8882,,,,,,+   ",
"   *DDDZMMh777alls7771,,,,,,+   ",
"   *DDDZMMh777alls7771,,,,,,+   ",
"   *DDDZMMh777alls7771,,,,,,+   ",
"FFFFXXXfDDm777alls7771,,:...FFFF",
"FFFF   fDDm777alls7771,,;   FFFF",
"FFFF   fDDVlllq779lll4,,;   FFFF",
"FFFF   fDDVlllq779lll4,,;   FFFF",
"FFFF   dMMNlllq779lll4,,;   FFFF",
"FFFF   dMMNlllq779lll4,,;   FFFF",
"FFFF   fDDm777alls7771,,;   FFFF",
"FFFF   fDDm777alls7771,,;   FFFF",
"FFFF   dMMh777ally,,,,,,;   FFFF",
"FFFF   dMMh777ally,,,,,,;   FFFF",
"FFFFFFF   @MMMe773,,,O   FFFFFFF",
"FFFFFFF   @MMMe773,,,O   FFFFFFF",
"FFFFFFFFFFFXXX.......FFFFFFFFFFF",
"FFFFFFFFFFF          FFFFFFFFFFF"
};
