/* XPM */
static char *result[] = {
/* columns rows colors chars-per-pixel */
"32 32 85 1 ",
"  c black",
". c #000100",
"X c #010900",
"o c #010D01",
"O c #020E00",
"+ c #021501",
"@ c #072B01",
"# c #083001",
"$ c #033900",
"% c #033A00",
"& c gray17",
"* c #2D2D2D",
"= c #034100",
"- c #054204",
"; c #064A04",
": c #0D5302",
"> c #0D5402",
", c #0D5502",
"< c #0E5403",
"1 c #0D5602",
"2 c #115503",
"3 c #125604",
"4 c #115606",
"5 c #115706",
"6 c #16590B",
"7 c #056E00",
"8 c #056F00",
"9 c #066F00",
"0 c #057000",
"q c #057001",
"w c #067001",
"e c #097101",
"r c #0E7302",
"t c #097104",
"y c #0A7B07",
"u c #0A7C07",
"i c #0A7D07",
"p c #0A7E07",
"a c #0E7409",
"s c #0B7F08",
"d c #0E7F0B",
"f c #127606",
"g c #25646C",
"h c gray39",
"j c DimGray",
"k c #6A6A6A",
"l c gray48",
"z c #0E800B",
"x c #138310",
"c c #F5E639",
"v c #F6E639",
"b c #F6E739",
"n c #FBE93A",
"m c #FEEB3B",
"M c #FFEB3B",
"N c #45BACA",
"B c #4CCEDF",
"V c #4DD0E1",
"C c #5FD5E4",
"Z c #7BDDE9",
"A c gray52",
"S c #80DEEA",
"D c #81DEEA",
"F c #C6C6C6",
"G c gray83",
"H c #C5ECF1",
"J c #C6EEF3",
"K c #C7EEF3",
"L c #D0F1F5",
"P c #EEEEEE",
"I c #EEF3ED",
"U c #EEF6ED",
"Y c #ECFAFC",
"T c #F1F1F1",
"R c #F5F9F5",
"E c #F6F9F6",
"W c #F6FAF6",
"Q c #F7FBF7",
"! c #FBFCFB",
"~ c #FBFDFB",
"^ c gray99",
"/ c #FDFDFD",
"( c #FDFEFD",
") c #FEFEFE",
"_ c white",
/* pixels */
"pp08pp88pp,:88pppp088888pp088888",
"pp08pp88pp,:88pppp088888pp088888",
"pp1>,,RW,,IEdi,,,,ui,>88,,ui,>ii",
"pp,:::)_::E_zp::::up>:88::up>:pp",
"pp88ii44nnft>>788888ii88ii,>::88",
"pp08pp::MMr8:     88pp88pp,:::88",
"88ippp()99R*.//HBB.X88::88ip8888",
"88ippp)_88W& __KVV X88::88ip8888",
"8888ppppp; G_KKKVVVN A<:__a8pppp",
"8888pppp.j/TPKKDSSVC/l.:__a8pppp",
">>ui,,80 hP^____SS_YVg vxxq8,,pp",
"::up>:88 hP^____SS_YVg Mpp08::pp",
"ii,>::88 k_LKSSSKKSZVg e~~a8ii88",
"pp,:::88 k_LKSSSKKSZVg 8__a8pp88",
"pp88pppp k_TPSSJDDVVVg 8sspp88pp",
"pp08pppp k_TPSSKSSVVVg 8pppp88pp",
"88ippp88 k_TPSSKSSVVVg 8::::ip88",
"88ippp88p; G_SSKSSVN @88::::ip88",
"iiUW5,880= G_KKSKKVN $ii77uuppRW",
"ppW_4:888= FPKKSKKVN %pp88ippp)_",
"nnft88pp:# FPKKSKKVN -88pp,>8844",
"MMr888pp:# G_SSKSSVN -88pp,:88::",
"99R)t8pp8= FPSSKVVVN @8888ip>:()",
"88W_t8pp88i+ PPSVV o>:8888ip>:)_",
"pp08pp88pp,O PPSVV X88::pppppp88",
"pp08pp88pp,:!     6:88::pppppp88",
"00ii,,>>,,yuxxcbaa>:>>uu,,80ppii",
"88ip>:::::upppmM88>:::pp::78pppp",
"pp,>78::ii08Q~32~~a8ii888888>>88",
"pp,:88::pp08~_<:__a8pp888888::88",
"8888pp8888ipssppwwip8888pp0888pp",
"8888pp8888ippppp88ip8888pp0888pp"
};
