/* XPM */
static char *daphnia1671195839[] = {
/* columns rows colors chars-per-pixel */
"76 112 9 1 ",
"  c #18405D",
". c #F4AB26",
"X c #F4E126",
"o c #2B79A9",
"O c #5AA7CC",
"+ c #55C4F6",
"@ c #BAE1F6",
"# c #E5FAFF",
"$ c white",
/* pixels */
"############################################################################",
"############################################################################",
"############################################################################",
"############################################################################",
"############################################################################",
"############################################################################",
"############################################################################",
"############################################################################",
"############################################################################",
"############################################################################",
"############################################################################",
"############################################################################",
"############################################################################",
"############################################################################",
"############################################################################",
"############################################################################",
"############################################################################",
"############################################################################",
"############################################################################",
"############################################################################",
"############################################################################",
"############################################################################",
"############################################################################",
"###########################oooo        oooo#################################",
"###########################oooo        oooo#################################",
"###########################oooo        oooo#################################",
"###########################oooo        oooo#################################",
"#######################oooo++++++++++++++++    #############################",
"#######################oooo++++++++++++++++    #############################",
"#######################oooo++++++++++++++++    #############################",
"#######################oooo++++++++++++++++    #############################",
"###################oooo++++$$$$@@@@@@@@@@@@++++    #########################",
"###################oooo++++$$$$@@@@@@@@@@@@++++    #########################",
"###################oooo++++$$$$@@@@@@@@@@@@++++    #########################",
"###################oooo++++$$$$@@@@@@@@@@@@++++    #########################",
"###############oooo++++$$$$@@@@    @@@@XXXX....++++oooo#####################",
"###############oooo++++$$$$@@@@    @@@@XXXX....++++oooo#####################",
"###############oooo++++$$$$@@@@    @@@@XXXX....++++oooo#####################",
"###############oooo++++$$$$@@@@    @@@@XXXX....++++oooo#####################",
"###########oooo++++$$$$@@@@@@@@    @@@@XXXXOOOOoooo    #####################",
"###########oooo++++$$$$@@@@@@@@    @@@@XXXXOOOOoooo    #####################",
"###########oooo++++$$$$@@@@@@@@    @@@@XXXXOOOOoooo    #####################",
"###########oooo++++$$$$@@@@@@@@    @@@@XXXXOOOOoooo    #####################",
"###########    ++++++++@@@@@@@@@@@@@@@@XXXXoooo    ++++oooo#################",
"###########    ++++++++@@@@@@@@@@@@@@@@XXXXoooo    ++++oooo#################",
"###########    ++++++++@@@@@@@@@@@@@@@@XXXXoooo    ++++oooo#################",
"###########    ++++++++@@@@@@@@@@@@@@@@XXXXoooo    ++++oooo#################",
"###############oooo        ++++oooooooo@@@@XXXX....++++    #################",
"###############oooo        ++++oooooooo@@@@XXXX....++++    #################",
"###############oooo        ++++oooooooo@@@@XXXX....++++    #################",
"###############oooo        ++++oooooooo@@@@XXXX....++++    #################",
"#######################oooooooo@@@@@@@@OOOOXXXXOOOOoooo++++oooo#############",
"#######################oooooooo@@@@@@@@OOOOXXXXOOOOoooo++++oooo#############",
"#######################oooooooo@@@@@@@@OOOOXXXXOOOOoooo++++oooo#############",
"#######################oooooooo@@@@@@@@OOOOXXXXOOOOoooo++++oooo#############",
"###########oooooooooooo@@@@@@@@OOOO        XXXXoooo    ++++    #############",
"###########oooooooooooo@@@@@@@@OOOO        XXXXoooo    ++++    #############",
"###########oooooooooooo@@@@@@@@OOOO        XXXXoooo    ++++    #############",
"###########oooooooooooo@@@@@@@@OOOO        XXXXoooo    ++++    #############",
"#######oooo    @@@@OOOO            @@@@@@@@XXXX....@@@@++++    #############",
"#######oooo    @@@@OOOO            @@@@@@@@XXXX....@@@@++++    #############",
"#######oooo    @@@@OOOO            @@@@@@@@XXXX....@@@@++++    #############",
"#######oooo    @@@@OOOO            @@@@@@@@XXXX....@@@@++++    #############",
"###    ########oooo        ++++@@@@@@@@XXXXOOOOoooo@@@@++++    #############",
"###    ########oooo        ++++@@@@@@@@XXXXOOOOoooo@@@@++++    #############",
"###    ########oooo        ++++@@@@@@@@XXXXOOOOoooo@@@@++++    #############",
"###    ########oooo        ++++@@@@@@@@XXXXOOOOoooo@@@@++++    #############",
"###########oooo########oooo++++@@@@XXXX....oooo    ++++    oooo#############",
"###########oooo########oooo++++@@@@XXXX....oooo    ++++    oooo#############",
"###########oooo########oooo++++@@@@XXXX....oooo    ++++    oooo#############",
"###########oooo########oooo++++@@@@XXXX....oooo    ++++    oooo#############",
"#######    ################    ++++++++@@@@++++@@@@++++    #################",
"#######    ################    ++++++++@@@@++++@@@@++++    #################",
"#######    ################    ++++++++@@@@++++@@@@++++    #################",
"#######    ################    ++++++++@@@@++++@@@@++++    #################",
"###############################oooo            ++++++++@@@@oooo#############",
"###############################oooo            ++++++++@@@@oooo#############",
"###############################oooo            ++++++++@@@@oooo#############",
"###############################oooo            ++++++++@@@@oooo#############",
"###############################################oooo    ++++@@@@oooo#########",
"###############################################oooo    ++++@@@@oooo#########",
"###############################################oooo    ++++@@@@oooo#########",
"###############################################oooo    ++++@@@@oooo#########",
"#######################################################oooo        #########",
"#######################################################oooo        #########",
"#######################################################oooo        #########",
"#######################################################oooo        #########",
"############################################################################",
"############################################################################",
"############################################################################",
"############################################################################",
"############################################################################",
"############################################################################",
"############################################################################",
"############################################################################",
"############################################################################",
"############################################################################",
"############################################################################",
"############################################################################",
"############################################################################",
"############################################################################",
"############################################################################",
"############################################################################",
"############################################################################",
"############################################################################",
"############################################################################",
"############################################################################",
"############################################################################",
"############################################################################",
"############################################################################",
"############################################################################",
"############################################################################"
};
