/* XPM */
static char *result[] = {
/* columns rows colors chars-per-pixel */
"32 32 155 2 ",
"   c #000000",
".  c #010F00",
"X  c #0F0C0B",
"o  c #120F0C",
"O  c #041701",
"+  c #1F1D0B",
"@  c #141414",
"#  c #1E1512",
"$  c #211714",
"%  c #291D19",
"&  c #032302",
"*  c #052D01",
"=  c #043201",
"-  c #0A3504",
";  c #043C02",
":  c #093C01",
">  c #113B0D",
",  c #23210D",
"<  c #24370C",
"1  c #2F2C11",
"2  c #23231D",
"3  c #2B281E",
"4  c #32231E",
"5  c #23351B",
"6  c #3A311F",
"7  c #242524",
"8  c #2F2E27",
"9  c #372924",
"0  c #382C28",
"q  c #2C3B29",
"w  c #373327",
"e  c #373737",
"r  c #3E3E3E",
"t  c #412E27",
"y  c #432F28",
"u  c #42332E",
"i  c #423E2F",
"p  c #403630",
"a  c #4B3C36",
"s  c #493D39",
"d  c #503F3A",
"f  c #0B4302",
"g  c #094605",
"h  c #054D02",
"j  c #0B4A04",
"k  c #055502",
"l  c #0D5402",
"z  c #065A03",
"x  c #085F05",
"c  c #115406",
"v  c #1B4D18",
"b  c #214A1F",
"n  c #3C4D14",
"m  c #355513",
"M  c #056500",
"N  c #086405",
"B  c #056F00",
"V  c #096C06",
"C  c #057000",
"Z  c #0A7306",
"A  c #0A7E07",
"S  c #274324",
"D  c #314826",
"F  c #2F502D",
"G  c #364D35",
"H  c #4E4837",
"J  c #524D3A",
"K  c #625B22",
"L  c #6E6726",
"P  c #434343",
"I  c #4C4C4C",
"U  c #584C48",
"Y  c #5E5743",
"T  c gray33",
"R  c #5C5C5C",
"E  c #6D4C41",
"W  c #64544E",
"Q  c #675F49",
"!  c #605754",
"~  c #7A5F55",
"^  c #6A624B",
"/  c #626051",
"(  c #6E6C5B",
")  c #766E54",
"_  c #72705F",
"`  c #7C7458",
"'  c #656665",
"]  c #6A6B6A",
"[  c #716D62",
"{  c #767164",
"}  c #7F7967",
"|  c #757574",
" . c #7E7D75",
".. c #7D7D7D",
"X. c #837A2D",
"o. c #82655B",
"O. c #8D6E63",
"+. c #837D69",
"@. c #907167",
"#. c #91766D",
"$. c #96796F",
"%. c #807C7B",
"&. c #977E75",
"*. c #918732",
"=. c #9E9437",
"-. c #9D943C",
";. c #F4E338",
":. c #FEEA3B",
">. c #A59C46",
",. c #BCAF41",
"<. c #8D8364",
"1. c #8A836B",
"2. c #998E6C",
"3. c #82807B",
"4. c #9B8076",
"5. c #A0877E",
"6. c #A59975",
"7. c #AB9F7A",
"8. c #A9A57E",
"9. c #D6C74A",
"0. c #D9CA4B",
"q. c #FFEE58",
"w. c #FFEF65",
"e. c #FFF06F",
"r. c #848484",
"t. c #8A8786",
"y. c #8C8D8C",
"u. c #9D9B83",
"i. c gray60",
"p. c #A48D85",
"a. c #ACAA8C",
"s. c #BAAC83",
"d. c #A4A4A4",
"f. c #BCAAA4",
"g. c #B2B2B2",
"h. c #BABABA",
"j. c #C8BA8E",
"k. c #CFC889",
"l. c #D0C194",
"z. c #DACB9B",
"x. c #E0D19F",
"c. c #FFF281",
"v. c #E7D7A4",
"b. c #FFF6A4",
"n. c #FFEDB5",
"m. c #C6C6C6",
"M. c gray83",
"N. c gray85",
"B. c #FFF9C5",
"V. c #FFFBD4",
"C. c gray88",
"Z. c #EBEBEB",
"A. c #F6F6F6",
"S. c #F6FAF6",
"D. c #FEFEFE",
/* pixels */
"A A C C A A C M V N g 5 8 1 1 1 1 1 1 1 < z z z Z A B B B B B B ",
"A A C C A A C ;       a.V.e.q.q.q.q.q.q.,.      ; A B B B B B B ",
"A A l l l j y. .( ( ( k.b.>.*.*.*.*.=.q.0.L L L n = V A l l A A ",
"A A l l l :   _ V.V.V.c.q.1         + q.q.q.q.q.X.  h A l l A A ",
"A A B B A V - D ! / / k.b.a.u.-.=.u.8.q.9.K K K m h j l l l B B ",
"A A B B A A l =       a.V.V.V.w.q.V.B.q.,.      ; A c l l l B B ",
"B B A A A x 7 s ~ ~ ) p 2 2 2 , , 7 2 , 6 ~ ~ ) u . k A B B B B ",
"B B A A A k   u @.@.O.0 X X X X X X X X 9 O.O.@.s   h A B B B B ",
"B C B B A z   U f.p.O.O.O.O.O.O.O.O.O.O.O.O.5.f.!   j B A A A A ",
"B B C M c g $ U p.p.&.&.4.@.O.O.O.O.@.&.4.4.5.p.W $ > h Z A A A ",
"l l A N   $ E E E &.f.f.f.$.O.O.O.O.#.f.f.f.5.E E E %   : l A A ",
"l l A N   $ E E E o.#.#.#.d u u u u a #.#.$.o.E E E %   : l A A ",
"A A l f   $ E E E E E E E o         X E E E E E E J %   z A B B ",
"A Z O q h.t.# t E t # # $ 2.s.s.s.s.6.# # # 9 E y # ..h.G & M B ",
"A Z   e D.g.  4 E 4       l.n.n.n.n.x.      % E t   d.D.I   V A ",
"  @ D.D.D.D.S.y.  +.n.J   l.n.n.n.n.x.  i n.2.  %.D.D.D.S.D.7   ",
"  @ D.D.D.D.D.y.  ^ j.Q w z.n.n.n.n.v.w Q j.)   ..D.D.D.D.D.7   ",
"  @ D.D.D.D.D.y.      7.n.n.n.n.n.n.n.n.s.      ..D.D.D.D.D.7   ",
"= > i.g.D.C.i.r.' ' ' 1.2.2.2.2.2.2.2.2.1.' ' ' ..i.N.D.g.i.] ' ",
"A Z   e D.g.  | D.D.D.T                 P D.D.D.r.  d.D.I   N.D.",
":.;.j v R [ 6.+.R d.Z.h.d.d.d.d.d.d.d.d.h.Z.g.R } 6.{ R v h c c ",
":.:.Z k   H n.<.  | C.S.D.D.D.D.D.D.D.D.A.C.r.  ` n.Y   h C l l ",
"C B S.m.  X 3 | M.Z.D.D.D.D.D.D.D.D.D.D.D.S.Z.M.3.7 o   : l D.D.",
"B C S.m.    @ ..D.D.D.D.D.D.D.D.D.D.D.D.D.D.D.D.y.@     : l D.D.",
"A A C k   I D.D.D.D.D.Z.C.S.D.D.D.D.S.C.Z.D.D.D.D.D.R   x A C C ",
"A A C k   I D.D.D.A.A.Z.Z.D.D.D.D.D.D.Z.Z.A.S.D.D.D.R   c A C C ",
"C C A N   I D.D.D.A.N.A.D.D.D.D.D.D.D.D.A.C.Z.D.D.D.R   z A A A ",
"B C A V * S ......g.C.A.D.D.D.D.D.D.D.D.A.C.h.......F ; V A A A ",
"A A l l V h       | C.A.D.D.D.D.D.D.D.D.A.C.r.      g B l l B B ",
"A A l l C M : f N b e r r r P r P r P r r e S k k k M B l l B B ",
"C C C B A A B B B =                         * B A A C B B B A A ",
"C B B B A A B C B B A A A A A A B B A A B B B B A A C B B C A A "
};
