/* XPM */
static char *result[] = {
/* columns rows colors chars-per-pixel */
"32 32 49 1 ",
"  c #0D5302",
". c #0D5402",
"X c #0D5502",
"o c #0E5403",
"O c #0D5602",
"+ c #115503",
"@ c #125604",
"# c #115606",
"$ c #115706",
"% c #16590B",
"& c #056E00",
"* c #056F00",
"= c #066F00",
"- c #057000",
"; c #057001",
": c #067001",
"> c #097101",
", c #0A7202",
"< c #0E7302",
"1 c #097104",
"2 c #0A7B07",
"3 c #0A7C07",
"4 c #0A7D07",
"5 c #0A7E07",
"6 c #0E7409",
"7 c #0B7F08",
"8 c #0E7F0B",
"9 c #127606",
"0 c #0E800B",
"q c #138210",
"w c #138310",
"e c #F5E539",
"r c #F5E639",
"t c #F6E639",
"y c #F6E739",
"u c #FBE93A",
"i c #FEEB3B",
"p c #FFEB3B",
"a c #EEF3ED",
"s c #EEF6ED",
"d c #F5F9F5",
"f c #F6F9F6",
"g c #F6FAF6",
"h c #F7FBF7",
"j c #FBFCFB",
"k c #FBFDFB",
"l c #FDFEFD",
"z c #FEFEFE",
"x c white",
/* pixels */
"55-*55**55X **5555-*****55-*****",
"55-*55**55X **5555-*****55-*****",
"55O.XXdgXXaf84XXXX34X.**XX34X.44",
"55X   zx  fx05    35. **  35. 55",
"55**44##uu91..&*****44**44X.  **",
"55-*55  pp<*  ******55**55X   **",
"**4555lz==dz1*55**. **  **45****",
"**4555zx**gx1*55**. **  **45****",
"****555555-*****55-*kxo xx6*5555",
"****555555-*****55-*kxo xx6*5555",
"..34XX*-XX..**44XX..qwetww;*XX55",
"  35. **    **55    45ip55-*  55",
"44X.  **44**55******hk,>kk6*44**",
"55X   **55-*55******kx:*xx6*55**",
"55**5555****. 55**45::**7755**55",
"55-*5555****  55**45****5555**55",
"**4555**55X     55-*  **    45**",
"**4555**55X     55-*  **    45**",
"44sg$X**--333333XX34&&44&&3355dg",
"55gx# ****455555  35**55**4555zx",
"uu91**55  &*55**44-*55**55X.**##",
"pp<***55  &*55**55-*55**55X **  ",
"==dz1*55**45******45. ****45. lz",
"**gx1*55**45******45. ****45. zx",
"55-*55**55X jx:*xx% **  555555**",
"55-*55**55X jx:*xx% **  555555**",
"--44XX..XX23wwry66. ..33XX*-5544",
"**45.     3555ip**.   55  &*5555",
"55X.&*  44-*hk@+kk6*44******..**",
"55X **  55-*kxo xx6*55******  **",
"****55****457755::45****55-***55",
"****55****455555**45****55-***55"
};
