/* XPM */
static char *_f8353cafd5c4a38d1f260321aa37584hbTuaf7YjOxKX4RP[] = {
/* columns rows colors chars-per-pixel */
"32 32 147 2 ",
"   c black",
".  c #060101",
"X  c gray2",
"o  c #010900",
"O  c #010F00",
"+  c #0B0B0B",
"@  c #0D0C09",
"#  c #0C0C0C",
"$  c #100F0B",
"%  c #031601",
"&  c #041A01",
"*  c #011D00",
"=  c #0B1409",
"-  c #111111",
";  c gray8",
":  c #191919",
">  c #1E1E1E",
",  c #211714",
"<  c #281C18",
"1  c #032702",
"2  c #062801",
"3  c #072F01",
"4  c #092C03",
"5  c #023000",
"6  c #043603",
"7  c #083101",
"8  c #033D00",
"9  c #093A01",
"0  c #093B01",
"q  c #0D360C",
"w  c #1B2819",
"e  c #2F2C10",
"r  c #202020",
"t  c gray14",
"y  c #222E20",
"u  c #2F2E27",
"i  c #2A2A2A",
"p  c #2C2C2C",
"a  c gray19",
"s  c #343434",
"d  c gray22",
"f  c #393939",
"g  c #3C3C3C",
"h  c #3E3E3E",
"j  c #731311",
"k  c #4B3C36",
"l  c #034600",
"z  c #054004",
"x  c #064604",
"c  c #0A4202",
"v  c #0B4402",
"b  c #0D410B",
"n  c #075305",
"m  c #0D5302",
"M  c #0D5402",
"N  c #0E5403",
"B  c #0D5602",
"V  c #0A5306",
"C  c #045900",
"Z  c #075905",
"A  c #075A05",
"S  c #115606",
"D  c #115706",
"F  c #3B4714",
"G  c #056500",
"H  c #056E00",
"J  c #056F00",
"K  c #0D6D08",
"L  c #057000",
"P  c #0E7302",
"I  c #097104",
"U  c #0A7C07",
"Y  c #0A7E07",
"T  c #0E7409",
"R  c #0B7F08",
"E  c #0E7F0B",
"W  c #127606",
"Q  c #78701C",
"!  c #7C721D",
"~  c #6E6726",
"^  c gray25",
"/  c gray26",
"(  c #464646",
")  c #494949",
"_  c #4B4B4B",
"`  c #4E4E4E",
"'  c #515151",
"]  c gray34",
"[  c #5B5B5B",
"{  c gray37",
"}  c #6D4C41",
"|  c #6E6C5B",
" . c #646464",
".. c DimGray",
"X. c #6C6C6C",
"o. c #6D6D6D",
"O. c #727272",
"+. c gray46",
"@. c gray47",
"#. c #7C7C7C",
"$. c gray50",
"%. c #821014",
"&. c #8C1414",
"*. c #9F1318",
"=. c #8D6E63",
"-. c #92746A",
";. c #0E800B",
":. c #138310",
">. c #918732",
",. c #FBE93A",
"<. c #FFEB3B",
"1. c #82807B",
"2. c #FFEE58",
"3. c #808080",
"4. c gray52",
"5. c gray54",
"6. c #8E8E8E",
"7. c #929292",
"8. c #979797",
"9. c #9B9B9B",
"0. c gray61",
"q. c gray62",
"w. c #A0A0A0",
"e. c gray63",
"r. c #A5A5A5",
"t. c #A7A7A7",
"y. c #AFAFAF",
"u. c #BCAAA4",
"i. c #B1B1B1",
"p. c gray71",
"a. c #B6B6B6",
"s. c #B9B9B9",
"d. c #BCBCBC",
"f. c #FFF59F",
"g. c #FBE9B2",
"h. c #FFEDB5",
"j. c #C9CAC9",
"k. c gray83",
"l. c #FFFBD4",
"z. c gray88",
"x. c #EEF3ED",
"c. c #EEF6ED",
"v. c #F5F9F5",
"b. c #F6FAF6",
"n. c gray98",
"m. c #FBFDFB",
"M. c white",
/* pixels */
"Y Y L J Y Y J J Y Y m m J J Y Y Y Y J J J J J J Y Y J J J J J J ",
"Y Y L J Y Y J J R R B m J J Y Y Y Y J J J J J J Y Y J J J J J J ",
"Y Y B m B B v.v.B B x.v.E Y B o     O R B B J J B m Y Y B m Y Y ",
"Y Y B m m m M.M.m m v.M.E Y m o . *.&.1 & 7 J J m m U Y m m Y Y ",
"Y Y J J Y Y S S ,.,.W I B m J o . %.j 5 6 n J J Y Y B m m m J J ",
"Y Y J J Y Y m m <.<.P J v c u e e e C G Y Y J J Y Y m m m m J J ",
"J H Y Y Y Y M.M.x O r > | | f.>.>.2.~ F O O o 3 J J Y Y J J J J ",
"J J U Y Y U M.M.8   t (     l.l.l.2.  = ( i   2 J J Y Y J J J J ",
"J J J J Y Y Y Y x   h ' -.=.$ $ $ $ =.k ) (   2 M.M.T J R Y Y Y ",
"J J J J Y Y Y Y x   a , } u.u.=.=.u.u.} < a   2 M.M.T J Y Y Y Y ",
"m m U Y B m J L 4   a , } } }     } } } < a   Q :.:.J J m B Y Y ",
"m m U Y B m J J 7 ; n.M.  g.  h.h.  g.@.M.M.t ! Y Y J J m m Y Y ",
"Y Y m m m c C C b ; M.M.    h.h.h.h.  $.M.M.t q j.j.K J Y Y J J ",
"Y Y m m B       s X.f i.M.M.        M.$.e.)  .h     V J Y Y J J ",
"Y Y J J Y   r ..h # X @ k.n.M.M.M.m.n.-.$ X # f ..t Z Y J J Y Y ",
"Y Y J J Y   t +.$.5.3.` M.M.z.M.M.z.m.m.{ @.5.3.+.p Z Y J J Y Y ",
"J J Y Y ;.  t +.' t ....$.z.M.M.M.M.z.#...X.t ` +.p 9 m Y Y J J ",
"J J Y ;.R   t +.+.+.9.i.6.f h ^ h ^ d 6.y.w.+.+.+.p 9 m Y Y J J ",
"Y Y c.v.S   t +.+.+.@.4.$.4.4.3.3.4.3.4.3.$.+.+.+.p Z R R R v.v.",
"Y Y $.3.4 a p h f h f h +.( f f h h ^  .h t > h f s q z 8 8 M.M.",
",.,.    : ` a   ; p ;   [ -   i i   # ^   +   ;   p i > X   S S ",
"<.<.  + +.X.3.i.p.d.p.i.y.y.y.s.d.y.y.y.y.p.d.p.i.4.O.+.-   N B ",
"J J   + +.r.0.6.e.d.d.d.d.[ ^ ^ ^ ^ ' d.d.d.d.r.6.0.3.+.-   M.M.",
"J J   + +.e.0.7.r.s.j.d.+.r # # # # : 4.d.d.j.r.7.9.3.+.-   M.M.",
"Y Y   + +.$.6.p.s.d.d.d.  > t r r t r a d.d.d.s.p.7.+.+.-   J J ",
"Y Y   + +.d.r.+.8.s.d.d.  : r r t ^ h a d.d.d.9.+.e.5.+.-   J J ",
"J J z 9 s f ] 8.8.8.8.8.  i a ^ ^ ^ f i 9.8.8.8.8.[ f f b z R Y ",
"J J Y Y % % w ] ] ] ] ]   i a a a a p ; ] ] ] ] ] y * * I Y Y Y ",
"Y Y B B J J 9                                     l J J B B J J ",
"Y Y m m J J m N Y Y L J m.M.B m M.M.T J Y Y J J J J J J m m J J ",
"J J J J Y R J J J J Y Y R R Y Y J J R Y J J J J Y Y J J J J R R ",
"J J J J Y R J J J J Y Y Y Y R R J J Y Y J J J J Y Y J J J J Y Y "
};
