/* XPM */
static char *result[] = {
/* columns rows colors chars-per-pixel */
"32 32 206 2 ",
"   c black",
".  c #020101",
"X  c #060606",
"o  c #070707",
"O  c #0D0908",
"+  c #0D0C09",
"@  c #0F0C0B",
"#  c #130D0B",
"$  c #100F0B",
"%  c #140E0C",
"&  c #150E0C",
"*  c #1F1D0B",
"=  c #131313",
"-  c gray8",
";  c #1E1512",
":  c #201613",
">  c #211714",
",  c #281C18",
"<  c #2C1F1B",
"1  c #23210C",
"2  c #23210D",
"3  c #23210E",
"4  c #2C280F",
"5  c #2F2C10",
"6  c #2F2D15",
"7  c #23221B",
"8  c #23231D",
"9  c #2B281E",
"0  c #31221D",
"q  c #33241F",
"w  c #3A311F",
"e  c gray13",
"r  c gray14",
"t  c #252525",
"y  c #2B2A23",
"u  c #2F2E27",
"i  c #2D2D2D",
"p  c #2F2F2F",
"a  c #302622",
"s  c #382721",
"d  c #3E2B25",
"f  c #382C28",
"g  c #3A2D29",
"h  c #373327",
"j  c gray19",
"k  c #343434",
"l  c #373737",
"z  c #393939",
"x  c #3A3A3A",
"c  c #3C3C3C",
"v  c gray24",
"b  c #3F3F3F",
"n  c #412E27",
"m  c #432F28",
"M  c #46312A",
"N  c #41332E",
"B  c #41342F",
"V  c #42342F",
"C  c #423E2F",
"Z  c #403630",
"A  c #4B3B35",
"S  c #4B3C36",
"D  c #503F3A",
"F  c #474318",
"G  c #4D491A",
"H  c #424136",
"J  c #4E4837",
"K  c #47453B",
"L  c #524D3A",
"P  c #625B22",
"I  c #6E6726",
"U  c #414141",
"Y  c #434343",
"T  c #494949",
"R  c #4E4E4E",
"E  c #5B4C47",
"W  c #544C49",
"Q  c #5D5742",
"!  c #5E5743",
"~  c gray33",
"^  c #5A5A5A",
"/  c gray37",
"(  c #6D4C41",
")  c #64544E",
"_  c #675F49",
"`  c #605754",
"'  c #7A5F55",
"]  c #6A624B",
"[  c #626051",
"{  c #6E6C5B",
"}  c #766E54",
"|  c #72705F",
" . c #7C7458",
".. c gray40",
"X. c #716D62",
"o. c #767164",
"O. c #7F7967",
"+. c #727272",
"@. c #777570",
"#. c #767676",
"$. c #7B7B7B",
"%. c #7C7C7C",
"&. c gray49",
"*. c gray50",
"=. c #837A2D",
"-. c #806359",
";. c #83665C",
":. c #857C5F",
">. c #8D6E63",
",. c #8F7065",
"<. c #8F7166",
"1. c #837D69",
"2. c #907167",
"3. c #92746A",
"4. c #93756B",
"5. c #91776F",
"6. c #96796F",
"7. c #807C7B",
"8. c #977E75",
"9. c #918732",
"0. c #9E9437",
"q. c #9D9339",
"w. c #9D943E",
"e. c #A59C46",
"r. c #BCAF41",
"t. c #8D8364",
"y. c #88816A",
"u. c #8B846B",
"i. c #958B6A",
"p. c #998E6C",
"a. c #9C906E",
"s. c #82807B",
"d. c #9B8076",
"f. c #9C847C",
"g. c #9F867D",
"h. c #A0867E",
"j. c #A0877E",
"k. c #A59975",
"l. c #A69A75",
"z. c #AB9F7A",
"x. c #A9A57E",
"c. c #D6C74A",
"v. c #D9CA4B",
"b. c #FFEE58",
"n. c #FFEF5D",
"m. c #FFEF65",
"M. c #FFF06F",
"N. c gray51",
"B. c #838383",
"V. c gray52",
"C. c #8A8786",
"Z. c #8B8B8B",
"A. c gray55",
"S. c #8D8D8D",
"D. c #9D9B83",
"F. c gray60",
"G. c #A38A82",
"H. c #A58E87",
"J. c #AFAB89",
"K. c #ABA98E",
"L. c #B9AC83",
"P. c #BCAE85",
"I. c gray63",
"U. c #A5A5A5",
"Y. c #A7A7A7",
"T. c #BCAAA4",
"R. c gray69",
"E. c #B1B1B1",
"W. c #B6B6B6",
"Q. c #B7B7B7",
"!. c gray72",
"~. c #B9B9B9",
"^. c #BCBCBC",
"/. c #C8BA8E",
"(. c #CBC589",
"). c #CFC889",
"_. c #D0C194",
"`. c #DACB9B",
"'. c #E0D19F",
"]. c #FFF281",
"[. c #FFF59F",
"{. c #E7D7A4",
"}. c #FFF6A4",
"|. c #FBE9B2",
" X c #FFEDB5",
".X c gray83",
"XX c gray85",
"oX c #FFF9C5",
"OX c #FFFBD4",
"+X c gray88",
"@X c gray91",
"#X c #EAEAEA",
"$X c gray92",
"%X c gray93",
"&X c #EEEEEE",
"*X c #EFEFEF",
"=X c gray96",
"-X c gray97",
";X c #F9F9F9",
":X c gray98",
">X c #FBFBFB",
",X c gray99",
"<X c #FDFDFD",
"1X c #FEFEFE",
"2X c white",
"3X c None",
/* pixels */
"3X3X3X3X3X3X3X3X3X3X3X                    3X3X3X3X3X3X3X3X3X3X3X",
"3X3X3X3X3X3X3X3X3X3X3Xy u 6 5 5 5 5 5 5 4 3X3X3X3X3X3X3X3X3X3X3X",
"3X3X3X3X3X3X3X3X      K.OXM.b.b.b.b.b.b.r.        3X3X3X3X3X3X3X",
"3X3X3X3X3X3X3XK { { { ).[.e.9.9.9.9.0.b.v.I I I G 3X3X3X3X3X3X3X",
"3X3X3X3X3X3X  | OXOXOX].b.5         * b.b.b.b.b.=.  3X3X3X3X3X3X",
"3X3X3X3X3X3X3XH [ [ [ (.}.J.D.w.q.D.x.b.c.P P P F 3X3X3X3X3X3X3X",
"3X3X3X3X3X3X3X3X      K.OXOXOXm.n.OXoXb.r.        3X3X3X3X3X3X3X",
"3X3X3X3X3X3X  g ' ' ' Z 8 8 8 3 2 8 7 1 w ' ' ' V   3X3X3X3X3X3X",
"3X3X3X3X3X3X  B 3.<.>.f @ @ @ @ @ @ @ @ a >.<.3.S   3X3X3X3X3X3X",
"3X3X3X3X3X3X  W T.G.>.>.>.>.>.>.>.>.>.>.>.>.h.T.`   3X3X3X3X3X3X",
"3X3X3X3X3X# : E H.j.d.d.d.2.>.>.>.>.,.d.d.d.g.H.) : & 3X3X3X3X3X",
"3X3X3X3X  > ( ( ( 8.T.T.T.6.>.>.>.>.4.T.T.T.f.( ( ( ,   3X3X3X3X",
"3X3X3X3X  > ( ( ( -.5.5.5.D N N N N A 5.5.5.;.( ( ( ,   3X3X3X3X",
"3X3X3X3X  > ( ( ( ( ( ( ( %         O ( ( ( ( ( ( ( ,   3X3X3X3X",
"3X3X  k ~.C.; n ( m ; ; ; a.L.L.L.L.l.; ; ; d ( M ; 7.~.U   3X3X",
"3X3X  z 2XE.  0 ( q       _. X X X X'.      < ( s   I.2XT   3X3X",
"  - >X,X2X1X>XZ.. :.|.L   _. X X X X'.  C |.i.. $.>X1X2X,X>Xr   ",
"  - 2X2X2X2X2XS.  ] /._ h `. X X X X{.h Q /.}   %.2X2X2X2X2Xt   ",
"  - 2X2X2X2X2XS.      z. X X X X X X X XP.      %.2X2X2X2X2Xt   ",
"  = F.R.2X+XF.N.......y.p.p.p.p.p.p.p.p.u.......*.F.XX2XW.F.e   ",
"3X3X  z 2XE.  +.2X2X2X~                 Y 2X2X2XB.  I.2XT   3X3X",
"3X3X3X3X^ X.k.1.^ Y.$X^.U.U.U.U.U.U.U.U.Q.$XR.^ O.k.o.^ j 3X3X3X",
"3X3X3X3X  J  Xt.  #.+X=X2X2X2X2X2X2X2X2X-X+XV.   . X!   3X3X3X3X",
"3X3X3X3X  + 9 @..X@X:X<X2X2X2X2X2X2X2X2X1X:X#X.Xs.9 $   3X3X3X3X",
"3X3X3X3X  X - &.2X2X2X<X<X2X2X2X2X2X2X<X<X2X2X2XA.- o   3X3X3X3X",
"3X3X3X3X  R 2X2X2X2X2X#X+X;X2X2X2X2X>X+X@X2X2X2X2X2X/   3X3X3X3X",
"3X3X3X3X  R 2X2X2X:X=X&X#X>X2X2X2X2X,X#X%X=X;X2X2X2X/   3X3X3X3X",
"3X3X3X3X  R 2X2X2X*X+X=X2X2X2X2X2X2X2X2X-X+X%X2X2X2X/   3X3X3X3X",
"3X3X3X3X3Xx &.&.&.E.+X=X2X2X2X2X2X2X2X2X-X+X!.&.&.&.Y 3X3X3X3X3X",
"3X3X3X3X3X3X      #.+X=X2X2X2X2X2X2X2X2X-X+XV.      3X3X3X3X3X3X",
"3X3X3X3X3X3X3X3X3Xi l c b b b b b b b b v l p 3X3X3X3X3X3X3X3X3X",
"3X3X3X3X3X3X3X3X3X                            3X3X3X3X3X3X3X3X3X"
};
