/* XPM */
static char *result[] = {
/* columns rows colors chars-per-pixel */
"32 32 142 2 ",
"   c black",
".  c #020202",
"X  c #050101",
"o  c #060101",
"O  c #040404",
"+  c gray2",
"@  c #060606",
"#  c #070707",
"$  c #090909",
"%  c #0B0B0B",
"&  c #0C0C0C",
"*  c gray5",
"=  c #0E0E0E",
"-  c #111111",
";  c gray7",
":  c #131313",
">  c gray8",
",  c #151515",
"<  c #161616",
"1  c gray9",
"2  c #191919",
"3  c gray10",
"4  c #1B1B1B",
"5  c gray11",
"6  c gray12",
"7  c #202020",
"8  c gray13",
"9  c #222222",
"0  c gray14",
"q  c #252525",
"w  c gray15",
"e  c #272727",
"r  c #282828",
"t  c gray16",
"y  c #2A2A2A",
"u  c gray17",
"i  c #2C2C2C",
"p  c #2F2F2F",
"a  c gray19",
"s  c #313131",
"d  c #323232",
"f  c gray20",
"g  c #343434",
"h  c #373737",
"j  c gray22",
"k  c #393939",
"l  c #3A3A3A",
"z  c gray23",
"x  c #3C3C3C",
"c  c gray24",
"v  c #3E3E3E",
"b  c #3F3F3F",
"n  c #790E12",
"m  c gray25",
"M  c #414141",
"N  c gray26",
"B  c gray27",
"V  c #464646",
"C  c #484848",
"Z  c #4B4B4B",
"A  c #4C4C4C",
"S  c gray30",
"D  c gray31",
"F  c #515151",
"G  c gray32",
"H  c #535353",
"J  c #555555",
"K  c #565656",
"L  c gray34",
"P  c gray35",
"I  c #5A5A5A",
"U  c #5B5B5B",
"Y  c gray37",
"T  c gray38",
"R  c #626262",
"E  c #646464",
"W  c #656565",
"Q  c gray40",
"!  c DimGray",
"~  c #6C6C6C",
"^  c #6D6D6D",
"/  c gray44",
"(  c #717171",
")  c #727272",
"_  c gray45",
"`  c #747474",
"'  c gray46",
"]  c #767676",
"[  c #777777",
"{  c gray47",
"}  c #7C7C7C",
"|  c gray49",
" . c #7E7E7E",
".. c gray50",
"X. c #821014",
"o. c #911115",
"O. c #9F1318",
"+. c #808080",
"@. c #818181",
"#. c #838383",
"$. c #848484",
"%. c gray52",
"&. c gray54",
"*. c gray55",
"=. c #8D8D8D",
"-. c #8E8E8E",
";. c #909090",
":. c gray57",
">. c #929292",
",. c #939393",
"<. c gray58",
"1. c #959595",
"2. c #979797",
"3. c #989898",
"4. c #9A9A9A",
"5. c #9B9B9B",
"6. c gray61",
"7. c gray62",
"8. c #A0A0A0",
"9. c #A2A2A2",
"0. c gray64",
"q. c #A5A5A5",
"w. c gray65",
"e. c #A7A7A7",
"r. c gray66",
"t. c #A9A9A9",
"y. c #AAAAAA",
"u. c gray67",
"i. c #ACACAC",
"p. c #AFAFAF",
"a. c #B1B1B1",
"s. c #B2B2B2",
"d. c #B4B4B4",
"f. c gray71",
"g. c #B6B6B6",
"h. c #B7B7B7",
"j. c gray72",
"k. c #B9B9B9",
"l. c gray73",
"z. c #BCBCBC",
"x. c gray74",
"c. c None",
/* pixels */
"c.c.c.c.c.c.c.c.c.c.c.c.c.c.c.        c.c.c.c.c.c.c.c.c.c.c.c.c.",
"c.c.c.c.c.c.c.c.c.c.c.c.c.c.c.  o O.o.      c.c.c.c.c.c.c.c.c.c.",
"c.c.c.c.c.c.c.c.c.c.c.c.c.c.c.  X X.n       c.c.c.c.c.c.c.c.c.c.",
"c.c.c.c.c.c.c.c.c.c.c.c.c.c.c.        c.c.c.c.c.c.c.c.c.c.c.c.c.",
"c.c.c.c.c.c.c.c.c.c.c.c.c.c.c.    c.c.c.c.c.c.c.c.c.c.c.c.c.c.c.",
"c.c.c.c.c.c.c.c.      c.c.            c.c.      c.c.c.c.c.c.c.c.",
"c.c.c.c.c.c.c.c.  q V 6       Q ^       3 V y     c.c.c.c.c.c.c.",
"c.c.c.c.c.c.c.c.  v ' A j j j p.j.j j j C ' B     c.c.c.c.c.c.c.",
"c.c.c.c.c.c.c.c.  v ' 9.j.z.x.k.j.x.z.j.w.' B     c.c.c.c.c.c.c.",
"c.c.c.c.c.c.c.c.  v ' c 8 8.x.s e x.y.8 h ' B     c.c.c.c.c.c.c.",
"c.c.c.c.c.c.c.c.  v ' W Y i.x.2.<.x.s.Y E ' B     c.c.c.c.c.c.c.",
"c.c.c.c.c.c.c.c.  v ' ' ' 1.6.6.6.6.2.' ' ' B     c.c.c.c.c.c.c.",
"c.c.c.c.c.c.c.- 1 x Y Y Y Y Y _ ` Y Y Y Y Y M 1 : c.c.c.c.c.c.c.",
"c.c.c.c.      g ' h           ! /           a ' x       c.c.c.c.",
"c.c.c.c.  7 ! b & @   ) t.6   % &   > t.}   + & k ! w   c.c.c.c.",
"c.c.c.c.  0 ' ] [ [ [ w.x.$.[ [ [ [ +.x.u.[ [ [ ] ' u   c.c.c.c.",
"c.c.c.c.  0 ' ..&.q.x.5.&.d.x.;.*.x.h.&.3.x.r.&.+.' u   c.c.c.c.",
"c.c.c.c.  0 ' G w ] x.U u 9.x.l s x.u.u F x...w S ' u   c.c.c.c.",
"c.c.c.c.  0 ' ' ' 5.x.x.x.x.x.x.x.x.x.x.x.x.8.' ' ' u   c.c.c.c.",
"c.c.c.c.  0 ' ' ' | #.#.#.#.#.#.#.#.#.#.#.#. .' ' ' u   c.c.c.c.",
"c.c.c.% a f z z z z z R ' V z z z z N ' Q z z z z z g a = c.c.c.",
"  . 4 w Z g   > i ,   x I -   e y   % I N   ; i <   p Z t 4 O   ",
"  $ ' U       J x.P           t.f.          S x.T       H ' -   ",
"  $ ' _ ~ +.p.f.x.g.p.p.p.p.p.z.z.p.p.p.p.p.f.x.g.p.%.~ ) ' -   ",
"  $ ' +.q.7.=.0.x.x.x.x.x.L m m m m D x.x.x.x.x.w.=.6.q.#.' -   ",
"  $ ' ..8.6.>.q.x.x.x.&.( 7 * * * * 2 ( %.x.x.x.r.>.5.8.@.' -   ",
"  $ ' [ } -.g.k.x.x.x.v   4 8 8 8 0 7   d x.x.x.l.g.:.} [ ' -   ",
"  $ ' %.x.e.' 1.x.x.x.v   4 8 8 9 N l   d x.x.x.4.' 0.x.&.' -   ",
"  $ ' { @.;.a.g.x.x.x.v   4 8 l c N l   d x.x.x.h.a.,.@.{ ' -   ",
"c.# j j j J 2.2.2.2.2.d   t d m N N l   r 2.2.2.2.2.U j j j = c.",
"c.c.      6 K K K K K 5   r s s s s u   1 K K K K K w       c.c.",
"c.c.c.c.c.c.                                        c.c.c.c.c.c."
};
