/* XPM */
static char *result[] = {
/* columns rows colors chars-per-pixel */
"32 32 214 2 ",
"   c black",
".  c #000200",
"X  c #020202",
"o  c #050101",
"O  c #060101",
"+  c #000400",
"@  c #010400",
"#  c #040404",
"$  c gray2",
"%  c #060606",
"&  c #000800",
"*  c #010900",
"=  c #020B00",
"-  c #010C00",
";  c #010F00",
":  c #010F01",
">  c #090909",
",  c #0B0B0B",
"<  c #0C0C0C",
"1  c gray5",
"2  c #011101",
"3  c #031400",
"4  c #031601",
"5  c #041A01",
"6  c #011D00",
"7  c #111111",
"8  c gray7",
"9  c gray8",
"0  c #151515",
"q  c #161616",
"w  c gray9",
"e  c #191919",
"r  c #1B1B1B",
"t  c gray12",
"y  c #012100",
"u  c #032702",
"i  c #062801",
"p  c #072E01",
"a  c #072F01",
"s  c #042D02",
"d  c #092C03",
"f  c #023000",
"g  c #043603",
"h  c #083101",
"j  c #033D00",
"k  c #093A01",
"l  c #093B01",
"z  c #0D360C",
"x  c #10380C",
"c  c #162A13",
"v  c #1B2819",
"b  c #202020",
"n  c gray13",
"m  c #222222",
"M  c #232323",
"N  c gray14",
"B  c #252525",
"V  c gray15",
"C  c #272727",
"Z  c #222E20",
"A  c #282828",
"S  c gray16",
"D  c #2A2A2A",
"F  c gray17",
"G  c #2C2C2C",
"H  c #2F2F2F",
"J  c gray19",
"K  c #313131",
"L  c #323232",
"P  c gray20",
"I  c #343434",
"U  c #373737",
"Y  c gray22",
"T  c #393939",
"R  c #3A3A3A",
"E  c gray23",
"W  c #3C3C3C",
"Q  c #3E3E3E",
"!  c #3F3F3F",
"~  c #731311",
"^  c #034600",
"/  c #044400",
"(  c #054004",
")  c #054204",
"_  c #064604",
"`  c #0A4002",
"'  c #0A4202",
"]  c #094007",
"[  c #0D410B",
"{  c #0D400C",
"}  c #075305",
"|  c #0D5302",
" . c #0D5402",
".. c #0D5502",
"X. c #0E5403",
"o. c #0D5602",
"O. c #0A5306",
"+. c #045900",
"@. c #075905",
"#. c #075A05",
"$. c #115606",
"%. c #115706",
"&. c #056E00",
"*. c #056F00",
"=. c #066F00",
"-. c #0D6D08",
";. c #057000",
":. c #057001",
">. c #067001",
",. c #0E7302",
"<. c #097104",
"1. c #097106",
"2. c #097707",
"3. c #0A7C07",
"4. c #0A7D07",
"5. c #0A7E07",
"6. c #0E7409",
"7. c #0B7F08",
"8. c #0E7F0B",
"9. c #127606",
"0. c #78701C",
"q. c #7C721D",
"w. c gray25",
"e. c #414141",
"r. c gray26",
"t. c gray27",
"y. c #464646",
"u. c #484848",
"i. c #4B4B4B",
"p. c gray30",
"a. c gray31",
"s. c #515151",
"d. c gray32",
"f. c #555555",
"g. c #565656",
"h. c gray34",
"j. c #5A5A5A",
"k. c #5B5B5B",
"l. c gray37",
"z. c #646464",
"x. c gray40",
"c. c DimGray",
"v. c #6C6C6C",
"b. c #6D6D6D",
"n. c gray44",
"m. c #717171",
"M. c #727272",
"N. c gray45",
"B. c #747474",
"V. c gray46",
"C. c #767676",
"Z. c #777777",
"A. c #7C7C7C",
"S. c gray49",
"D. c #7C7E7C",
"F. c #7E7E7E",
"G. c gray50",
"H. c #821014",
"J. c #8C1414",
"K. c #9F1318",
"L. c #0E800B",
"P. c #138310",
"I. c #FBE93A",
"U. c #FFEB3B",
"Y. c #808080",
"T. c #818181",
"R. c #838383",
"E. c gray52",
"W. c gray54",
"Q. c gray55",
"!. c #8D8D8D",
"~. c #8E8E8E",
"^. c #909090",
"/. c gray57",
"(. c #929292",
"). c gray58",
"_. c #959595",
"`. c #979797",
"'. c #989898",
"]. c #9A9A9A",
"[. c #9B9B9B",
"{. c gray61",
"}. c gray62",
"|. c #A0A0A0",
" X c #A2A2A2",
".X c gray64",
"XX c #A5A5A5",
"oX c gray65",
"OX c #A7A7A7",
"+X c gray66",
"@X c #A9A9A9",
"#X c gray67",
"$X c #ACACAC",
"%X c #AFAFAF",
"&X c #B2B2B2",
"*X c #B4B4B4",
"=X c gray71",
"-X c #B6B6B6",
";X c #B7B7B7",
":X c gray72",
">X c #B9B9B9",
",X c gray73",
"<X c #BCBCBC",
"1X c gray74",
"2X c #C9CAC9",
"3X c #EEF3ED",
"4X c #EEF6ED",
"5X c #F5F9F5",
"6X c #F6F9F6",
"7X c #F6FAF6",
"8X c #FBFDFB",
"9X c #FDFEFD",
"0X c #FEFEFE",
"qX c white",
/* pixels */
"5.5.;.*.5.5.*.*.5.5...| *.*.5.5.5.5.;.*.*.*.*.*.5.5.;.*.*.*.*.*.",
"5.5.;.*.5.5.*.*.5.5...| *.*.5.5.5.5.;.*.*.*.*.*.5.5.;.*.*.*.*.*.",
"5.5.o. .....5X7X....3X6X8.4...*     : 4... .*.*.....3.4... .4.4.",
"5.5...| | | 0XqX| | 6XqXL.5.| * O K.J.u 5 h *.*.| | 3.5. .| 5.5.",
"5.5.*.*.4.4.$.$.I.I.9.<. . .&.- o H.~ f g } *.*.4.4... .| | *.*.",
"5.5.;.*.5.5.| | U.U.,.*.| | *.- + *.*.*.5.5.*.*.5.5...| | | *.*.",
"*.*.4.5.5.5.9X0X/ ; m M <.y 2 .   ; 3 ` ; ; = p *.*.4.5.*.*.*.*.",
"*.*.4.5.5.5.0XqXj   B y.s &   x.b.  @ c y.D   i *.*.4.5.*.*.*.*.",
"*.*.*.*.5.5.5.5._   Q V.Y Y Y %X:XY Y u.V.t.  i qXqX6.*.5.5.5.5.",
"*.*.*.*.5.5.5.5._   Q V.:X<X1X>X:X1X<XoXV.t.  i qXqX6.*.5.5.5.5.",
" . .3.4.....*.;.a   Q V.l.$X1X`.).1X&Xz.V.t.  0.P.P.:.*.....5.5.",
"| | 3.5. .| *.*.p   Q V.V._.{.{.{.{.`.V.V.t.  q.5.5.;.*.| | 5.5.",
"4.4... .| ' +.+.{ w W l.l.l.l.N.B.l.l.l.l.e.w x 2X2X-.*.4.4.*.*.",
"5.5...| |       I V.U         c.n.        J V.W     O.*.5.5.*.*.",
"5.5.*.*.5.  b c.! < %   @Xt   , <   9 A.  $ < T c.V #.5.*.*.5.5.",
"5.5.;.*.5.  N V.G.W.XX1XW.*X1X^.Q.1X;X'.1X+XW.Y.V.F #.5.*.*.5.5.",
"*.*.4.5.5.  N V.d.V C.1XF  X1XR K 1X#Xs.1XG.V p.V.F l | 4.5.*.*.",
"*.*.4.5.5.  N V.V.V.[.1X1X1X1X1X1X1X1X1X1X|.V.V.V.F l | 4.5.*.*.",
"4.4.4X7X%.  N V.V.V.S.R.R.R.R.R.R.R.R.R.R.F.V.V.V.F @.3.5.5.5X7X",
"5.5.D.T.d J P E E E E E V.y.E E E E r.x.E E E E E I z ( ( ( 0XqX",
"I.I.  X r i.I   9 G 0   j.7   C D   , r.  8 G q   H S r #   $.$.",
"U.U.  > V.v.Y.%X=X1X-X%X%X%X%X<X<X%X%X%X%X=X1X-X%XE.M.V.7   | | ",
"=.=.  > V.XX}.!..X1X1X1X1Xh.w.w.w.w.a.1X1X1X1XoX!.{.R.V.7   9X0X",
"*.*.  > V.|.{.(.XX1X1X1Xm.b 1 1 1 1 e E.1X1X1X+X(.[.T.V.7   0XqX",
"5.5.  > V.A.~.-X>X1X1X1X  r n n n N b L 1X1X1X,X-X/.Z.V.7   *.*.",
"5.5.  > V.1XOXV._.1X1X1X  r n n m r.R L 1X1X1X].V..XW.V.7   *.*.",
";.;.) ] Y Y f.`.`.`.`.`.  S L w.r.r.R A `.`.`.`.`.k.Y Y [ ) 4.4.",
"*.*.4.2.4 4 v g.g.g.g.g.  A K K K K F w g.g.g.g.g.Z 6 6 1.5.5.5.",
"5.5... .&.*.k                                     ^ *.*. . .*.*.",
"5.5...| *.*.| | 5.5.;.*.8XqXX.| qXqX6.*.5.5.*.*.*.*.*.*.| | *.*.",
"*.*.*.*.5.5.*.*.*.*.4.5.7.7.5.5.>.>.4.5.*.*.*.*.5.5.;.*.*.*.5.5.",
"*.*.*.*.5.5.*.*.*.*.4.5.5.5.5.5.*.*.4.5.*.*.*.*.5.5.;.*.*.*.5.5."
};
