/* XPM */
static char *result[] = {
/* columns rows colors chars-per-pixel */
"32 32 11 1 ",
"  c #5D4037",
". c #5F433A",
"X c #60433A",
"o c #795548",
"O c #7A5649",
"+ c #7A574A",
"@ c #7B584B",
"# c #7D5A4D",
"$ c #A1887F",
"% c #BBA9A3",
"& c #BCAAA4",
/* pixels */
"oooooo  $$%&Oooooooooo  $$%&Oooo",
"oooooo  $$%&Oooooooooo  $$%&Oooo",
"oooooo  $$#@oooooooooo  $$#@oooo",
"oooooo  $$+ooooooooooo  $$+ooooo",
"        $$X             $$X     ",
"        $$.             $$.     ",
"$$$$$$$$$$$$$$$$$$$$$$$$$$$$$$$$",
"$$$$$$$$$$$$$$$$$$$$$$$$$$$$$$$$",
"$$%&Oooooooooo  $$%&Oooooooooo  ",
"$$%&Oooooooooo  $$%&Oooooooooo  ",
"$$#@oooooooooo  $$#@oooooooooo  ",
"$$+ooooooooooo  $$+ooooooooooo  ",
"$$X             $$X             ",
"$$.             $$.             ",
"$$$$$$$$$$$$$$$$$$$$$$$$$$$$$$$$",
"$$$$$$$$$$$$$$$$$$$$$$$$$$$$$$$$",
"oooooo  $$%&Oooooooooo  $$%&Oooo",
"oooooo  $$%&Oooooooooo  $$%&Oooo",
"oooooo  $$#@oooooooooo  $$#@oooo",
"oooooo  $$+ooooooooooo  $$+ooooo",
"        $$X             $$X     ",
"        $$.             $$.     ",
"$$$$$$$$$$$$$$$$$$$$$$$$$$$$$$$$",
"$$$$$$$$$$$$$$$$$$$$$$$$$$$$$$$$",
"$$%&Oooooooooo  $$%&Oooooooooo  ",
"$$%&Oooooooooo  $$%&Oooooooooo  ",
"$$#@oooooooooo  $$#@oooooooooo  ",
"$$+ooooooooooo  $$+ooooooooooo  ",
"$$X             $$X             ",
"$$.             $$.             ",
"$$$$$$$$$$$$$$$$$$$$$$$$$$$$$$$$",
"$$$$$$$$$$$$$$$$$$$$$$$$$$$$$$$$"
};
